<svg xmlns="http://www.w3.org/2000/svg" xmlns:xlink="http://www.w3.org/1999/xlink" width="60" zoomAndPan="magnify" viewBox="0 0 45 44.999999" height="60" preserveAspectRatio="xMidYMid meet" version="1.0"><defs><clipPath id="6ca1e57fff"><path d="M 26.5 13.5 L 37.75 13.5 L 37.75 31.5 L 26.5 31.5 Z M 26.5 13.5 " clip-rule="nonzero"/></clipPath><clipPath id="9e83a92a57"><path d="M 8.945312 13.5 L 20.195312 13.5 L 20.195312 31.5 L 8.945312 31.5 Z M 8.945312 13.5 " clip-rule="nonzero"/></clipPath><clipPath id="8326682d74"><path d="M 17.800781 14.722656 L 29.800781 14.722656 L 29.800781 30.472656 L 17.800781 30.472656 Z M 17.800781 14.722656 " clip-rule="nonzero"/></clipPath><clipPath id="67ffba19bb"><path d="M 18 14.722656 L 29.800781 14.722656 L 29.800781 30.472656 L 18 30.472656 Z M 18 14.722656 " clip-rule="nonzero"/></clipPath><clipPath id="c180b13efc"><path d="M 17.800781 15 L 29.800781 15 L 29.800781 30.472656 L 17.800781 30.472656 Z M 17.800781 15 " clip-rule="nonzero"/></clipPath><clipPath id="b70ff2a062"><path d="M 18 16 L 24 16 L 24 30.472656 L 18 30.472656 Z M 18 16 " clip-rule="nonzero"/></clipPath><clipPath id="7a61cae2f4"><path d="M 18 15 L 29.800781 15 L 29.800781 30.472656 L 18 30.472656 Z M 18 15 " clip-rule="nonzero"/></clipPath></defs><g clip-path="url(#6ca1e57fff)"><path fill="#ffaec6" d="M 28.621094 14.40625 L 28.945312 14.734375 L 28.621094 15.0625 L 28.300781 14.734375 Z M 28.300781 16.5625 L 28.621094 16.890625 L 28.945312 16.5625 L 28.621094 16.230469 Z M 28.300781 15.648438 L 28.621094 15.976562 L 28.945312 15.648438 L 28.621094 15.316406 Z M 29.25 19.257812 C 29.355469 19.363281 29.457031 19.46875 29.558594 19.570312 L 29.824219 19.300781 L 29.515625 18.988281 Z M 29.207031 18.386719 L 29.515625 18.703125 L 29.824219 18.386719 L 29.515625 18.074219 Z M 28.300781 17.472656 L 28.621094 17.804688 L 28.945312 17.472656 L 28.621094 17.144531 Z M 27.390625 16.5625 L 27.726562 16.902344 L 28.0625 16.5625 L 27.726562 16.21875 Z M 28.351562 18.335938 C 28.457031 18.445312 28.566406 18.554688 28.671875 18.664062 L 28.945312 18.386719 L 28.621094 18.058594 Z M 30.152344 20.175781 C 30.25 20.277344 30.347656 20.378906 30.449219 20.476562 L 30.703125 20.214844 L 30.410156 19.914062 Z M 29.207031 14.734375 L 29.515625 15.046875 L 29.824219 14.734375 L 29.515625 14.417969 Z M 27.390625 15.648438 L 27.726562 15.988281 L 28.0625 15.648438 L 27.726562 15.304688 Z M 30.113281 19.300781 L 30.410156 19.601562 L 30.703125 19.300781 L 30.410156 19 Z M 30.113281 18.386719 L 30.410156 18.691406 L 30.703125 18.386719 L 30.410156 18.085938 Z M 29.207031 16.5625 L 29.515625 16.875 L 29.824219 16.5625 L 29.515625 16.246094 Z M 29.207031 13.820312 L 29.515625 14.136719 L 29.824219 13.820312 L 29.515625 13.503906 Z M 29.207031 17.472656 L 29.515625 17.789062 L 29.824219 17.472656 L 29.515625 17.160156 Z M 29.207031 15.648438 L 29.515625 15.960938 L 29.824219 15.648438 L 29.515625 15.332031 Z M 28.300781 30.265625 L 28.621094 30.59375 L 28.945312 30.265625 L 28.621094 29.9375 Z M 31.929688 25.699219 L 32.199219 25.972656 L 32.464844 25.699219 L 32.199219 25.425781 Z M 31.929688 23.871094 L 32.199219 24.144531 L 32.464844 23.871094 L 32.199219 23.597656 Z M 27.449219 17.414062 C 27.5625 17.53125 27.671875 17.644531 27.785156 17.757812 L 28.0625 17.472656 L 27.726562 17.132812 Z M 31.929688 26.613281 L 32.199219 26.886719 L 32.464844 26.613281 L 32.199219 26.335938 Z M 31.957031 22.015625 C 32.046875 22.109375 32.132812 22.199219 32.222656 22.289062 L 32.464844 22.042969 L 32.199219 21.769531 Z M 31.929688 22.957031 L 32.199219 23.230469 L 32.464844 22.957031 L 32.199219 22.683594 Z M 31.929688 20.214844 L 32.199219 20.488281 L 32.464844 20.214844 L 32.199219 19.941406 Z M 31.929688 21.128906 L 32.199219 21.402344 L 32.464844 21.128906 L 32.199219 20.855469 Z M 31.929688 28.4375 L 32.199219 28.714844 L 32.464844 28.4375 L 32.199219 28.164062 Z M 31.929688 24.785156 L 32.199219 25.058594 L 32.464844 24.785156 L 32.199219 24.511719 Z M 31.929688 27.527344 L 32.199219 27.800781 L 32.464844 27.527344 L 32.199219 27.25 Z M 28.300781 29.351562 L 28.621094 29.683594 L 28.945312 29.351562 L 28.621094 29.023438 Z M 27.390625 28.4375 L 27.726562 28.78125 L 28.0625 28.4375 L 27.726562 28.097656 Z M 26.546875 16.496094 C 26.664062 16.613281 26.78125 16.734375 26.898438 16.851562 L 27.183594 16.5625 L 26.832031 16.203125 Z M 27.390625 29.351562 L 27.726562 29.695312 L 28.0625 29.351562 L 27.726562 29.011719 Z M 28.300781 27.527344 L 28.621094 27.855469 L 28.945312 27.527344 L 28.621094 27.195312 Z M 28.300781 28.4375 L 28.621094 28.769531 L 28.945312 28.4375 L 28.621094 28.109375 Z M 30.113281 17.472656 L 30.410156 17.777344 L 30.703125 17.472656 L 30.410156 17.171875 Z M 28.304688 26.617188 L 28.621094 26.941406 L 28.945312 26.613281 L 28.625 26.285156 C 28.519531 26.394531 28.410156 26.503906 28.304688 26.617188 Z M 30.113281 28.4375 L 30.410156 28.742188 L 30.703125 28.4375 L 30.410156 28.136719 Z M 30.113281 16.5625 L 30.410156 16.863281 L 30.703125 16.5625 L 30.410156 16.257812 Z M 30.113281 30.265625 L 30.410156 30.566406 L 30.703125 30.265625 L 30.410156 29.964844 Z M 30.113281 26.613281 L 30.410156 26.914062 L 30.703125 26.613281 L 30.410156 26.308594 Z M 30.113281 29.351562 L 30.410156 29.65625 L 30.703125 29.351562 L 30.410156 29.050781 Z M 29.207031 30.265625 L 29.515625 30.582031 L 29.824219 30.265625 L 29.515625 29.953125 Z M 30.113281 24.785156 L 30.410156 25.085938 L 30.703125 24.785156 L 30.410156 24.484375 Z M 30.113281 25.699219 L 30.410156 26 L 30.703125 25.699219 L 30.410156 25.398438 Z M 31.023438 28.4375 L 31.304688 28.726562 L 31.585938 28.4375 L 31.304688 28.152344 Z M 31.023438 23.871094 L 31.304688 24.160156 L 31.585938 23.871094 L 31.304688 23.582031 Z M 29.207031 31.179688 L 29.515625 31.496094 L 29.824219 31.179688 L 29.515625 30.863281 Z M 31.023438 27.527344 L 31.304688 27.8125 L 31.585938 27.527344 L 31.304688 27.238281 Z M 31.023438 29.351562 L 31.304688 29.640625 L 31.585938 29.351562 L 31.304688 29.066406 Z M 31.023438 26.613281 L 31.304688 26.898438 L 31.585938 26.613281 L 31.304688 26.324219 Z M 31.023438 24.785156 L 31.304688 25.070312 L 31.585938 24.785156 L 31.304688 24.496094 Z M 31.023438 25.699219 L 31.304688 25.984375 L 31.585938 25.699219 L 31.304688 25.410156 Z M 30.113281 27.527344 L 30.410156 27.828125 L 30.703125 27.527344 L 30.410156 27.222656 Z M 31.023438 20.214844 L 31.304688 20.503906 L 31.585938 20.214844 L 31.304688 19.929688 Z M 31.023438 19.300781 L 31.304688 19.589844 L 31.585938 19.300781 L 31.304688 19.015625 Z M 31.023438 18.386719 L 31.304688 18.675781 L 31.585938 18.386719 L 31.304688 18.101562 Z M 29.207031 29.351562 L 29.515625 29.667969 L 29.824219 29.351562 L 29.515625 29.039062 Z M 31.054688 21.097656 C 31.148438 21.191406 31.242188 21.289062 31.335938 21.386719 L 31.585938 21.128906 L 31.304688 20.839844 Z M 30.113281 14.734375 L 30.410156 15.035156 L 30.703125 14.734375 L 30.410156 14.433594 Z M 31.023438 15.648438 L 31.304688 15.933594 L 31.585938 15.648438 L 31.304688 15.359375 Z M 30.113281 15.648438 L 30.410156 15.949219 L 30.703125 15.648438 L 30.410156 15.34375 Z M 31.023438 17.472656 L 31.304688 17.761719 L 31.585938 17.472656 L 31.304688 17.1875 Z M 31.023438 16.5625 L 31.304688 16.847656 L 31.585938 16.5625 L 31.304688 16.273438 Z M 29.207031 26.613281 L 29.515625 26.925781 L 29.824219 26.613281 L 29.515625 26.296875 Z M 29.207031 25.699219 L 29.515625 26.011719 L 29.824219 25.699219 L 29.515625 25.382812 Z M 29.207031 28.4375 L 29.515625 28.753906 L 29.824219 28.4375 L 29.515625 28.125 Z M 29.207031 27.527344 L 29.515625 27.839844 L 29.824219 27.527344 L 29.515625 27.210938 Z M 26.5 28.457031 L 26.832031 28.796875 L 27.183594 28.4375 L 26.851562 28.101562 C 26.734375 28.21875 26.617188 28.335938 26.5 28.457031 Z M 31.929688 19.300781 L 32.199219 19.574219 L 32.464844 19.300781 L 32.199219 19.027344 Z M 27.402344 27.535156 L 27.726562 27.867188 L 28.0625 27.527344 L 27.738281 27.191406 C 27.625 27.308594 27.515625 27.421875 27.402344 27.535156 Z M 34.652344 21.128906 L 34.878906 21.363281 L 35.109375 21.128906 L 34.878906 20.894531 Z M 33.746094 20.214844 L 33.988281 20.460938 L 34.226562 20.214844 L 33.988281 19.96875 Z M 33.746094 18.386719 L 33.988281 18.636719 L 34.226562 18.386719 L 33.988281 18.140625 Z M 33.746094 22.042969 L 33.988281 22.289062 L 34.226562 22.042969 L 33.988281 21.796875 Z M 33.746094 21.128906 L 33.988281 21.375 L 34.226562 21.128906 L 33.988281 20.882812 Z M 32.835938 25.699219 L 33.09375 25.957031 L 33.347656 25.699219 L 33.09375 25.4375 Z M 32.835938 27.527344 L 33.09375 27.785156 L 33.347656 27.527344 L 33.09375 27.265625 Z M 32.835938 26.613281 L 33.09375 26.871094 L 33.347656 26.613281 L 33.09375 26.351562 Z M 33.746094 19.300781 L 33.988281 19.546875 L 34.226562 19.300781 L 33.988281 19.054688 Z M 33.746094 22.957031 L 33.988281 23.203125 L 34.226562 22.957031 L 33.988281 22.710938 Z M 33.746094 25.699219 L 33.988281 25.945312 L 34.226562 25.699219 L 33.988281 25.453125 Z M 34.652344 19.300781 L 34.878906 19.535156 L 35.109375 19.300781 L 34.878906 19.070312 Z M 34.652344 20.214844 L 34.878906 20.449219 L 35.109375 20.214844 L 34.878906 19.984375 Z M 34.652344 22.042969 L 34.878906 22.277344 L 35.109375 22.042969 L 34.878906 21.808594 Z M 33.746094 26.613281 L 33.988281 26.859375 L 34.226562 26.613281 L 33.988281 26.363281 Z M 33.746094 23.871094 L 33.988281 24.117188 L 34.226562 23.871094 L 33.988281 23.625 Z M 33.746094 24.785156 L 33.988281 25.03125 L 34.226562 24.785156 L 33.988281 24.539062 Z M 32.835938 24.785156 L 33.09375 25.042969 L 33.347656 24.785156 L 33.09375 24.523438 Z M 32.835938 22.042969 L 33.09375 22.304688 L 33.347656 22.042969 L 33.09375 21.78125 Z M 32.835938 21.128906 L 33.09375 21.390625 L 33.347656 21.128906 L 33.09375 20.867188 Z M 32.835938 22.957031 L 33.09375 23.21875 L 33.347656 22.957031 L 33.09375 22.695312 Z M 31.929688 18.386719 L 32.199219 18.664062 L 32.464844 18.386719 L 32.199219 18.113281 Z M 32.835938 23.871094 L 33.09375 24.132812 L 33.347656 23.871094 L 33.09375 23.609375 Z M 32.835938 20.214844 L 33.09375 20.476562 L 33.347656 20.214844 L 33.09375 19.957031 Z M 32.835938 18.386719 L 33.09375 18.648438 L 33.347656 18.386719 L 33.09375 18.128906 Z M 32.835938 19.300781 L 33.09375 19.5625 L 33.347656 19.300781 L 33.09375 19.042969 Z M 32.835938 17.472656 L 33.09375 17.734375 L 33.347656 17.472656 L 33.09375 17.214844 Z M 31.929688 16.5625 L 32.199219 16.835938 L 32.464844 16.5625 L 32.199219 16.285156 Z M 37.75 22.042969 L 37.5625 21.851562 L 37.375 22.042969 L 37.5625 22.234375 Z M 31.929688 17.472656 L 32.199219 17.75 L 32.464844 17.472656 L 32.199219 17.199219 Z M 35.558594 24.785156 L 35.773438 25.003906 L 35.988281 24.785156 L 35.773438 24.566406 Z M 35.558594 21.128906 L 35.773438 21.347656 L 35.988281 21.128906 L 35.773438 20.910156 Z M 37.375 22.957031 L 37.5625 23.148438 L 37.75 22.957031 L 37.5625 22.765625 Z M 35.558594 22.042969 L 35.773438 22.261719 L 35.988281 22.042969 L 35.773438 21.824219 Z M 34.652344 24.785156 L 34.878906 25.015625 L 35.109375 24.785156 L 34.878906 24.550781 Z M 34.652344 23.871094 L 34.878906 24.105469 L 35.109375 23.871094 L 34.878906 23.636719 Z M 34.652344 25.699219 L 34.878906 25.929688 L 35.109375 25.699219 L 34.878906 25.464844 Z M 35.558594 22.957031 L 35.773438 23.175781 L 35.988281 22.957031 L 35.773438 22.738281 Z M 35.558594 20.214844 L 35.773438 20.433594 L 35.988281 20.214844 L 35.773438 19.996094 Z M 36.46875 22.957031 L 36.667969 23.164062 L 36.871094 22.957031 L 36.667969 22.75 Z M 36.46875 23.871094 L 36.667969 24.078125 L 36.871094 23.871094 L 36.667969 23.664062 Z M 36.46875 22.042969 L 36.667969 22.25 L 36.871094 22.042969 L 36.667969 21.835938 Z M 34.652344 22.957031 L 34.878906 23.191406 L 35.109375 22.957031 L 34.878906 22.722656 Z M 36.46875 21.128906 L 36.667969 21.335938 L 36.871094 21.128906 L 36.667969 20.921875 Z M 35.558594 23.871094 L 35.773438 24.089844 L 35.988281 23.871094 L 35.773438 23.652344 Z M 35.558594 23.871094 " fill-opacity="1" fill-rule="nonzero"/></g><g clip-path="url(#9e83a92a57)"><path fill="#ffaec6" d="M 18.074219 30.59375 L 17.753906 30.265625 L 18.074219 29.9375 L 18.398438 30.265625 Z M 18.398438 28.4375 L 18.074219 28.109375 L 17.753906 28.4375 L 18.074219 28.769531 Z M 18.398438 29.351562 L 18.074219 29.023438 L 17.753906 29.351562 L 18.074219 29.683594 Z M 17.445312 25.742188 C 17.34375 25.636719 17.238281 25.53125 17.136719 25.429688 L 16.875 25.699219 L 17.179688 26.011719 Z M 17.488281 26.613281 L 17.179688 26.296875 L 16.875 26.613281 L 17.179688 26.925781 Z M 18.398438 27.527344 L 18.074219 27.195312 L 17.753906 27.527344 L 18.074219 27.855469 Z M 19.304688 28.4375 L 18.96875 28.097656 L 18.632812 28.4375 L 18.96875 28.78125 Z M 18.347656 26.664062 C 18.238281 26.554688 18.132812 26.445312 18.023438 26.335938 L 17.753906 26.613281 L 18.074219 26.941406 Z M 16.542969 24.824219 C 16.445312 24.722656 16.347656 24.621094 16.25 24.523438 L 15.992188 24.785156 L 16.289062 25.085938 Z M 17.488281 30.265625 L 17.179688 29.953125 L 16.875 30.265625 L 17.179688 30.582031 Z M 19.304688 29.351562 L 18.96875 29.011719 L 18.632812 29.351562 L 18.96875 29.695312 Z M 16.582031 25.699219 L 16.289062 25.398438 L 15.992188 25.699219 L 16.289062 26 Z M 16.582031 26.613281 L 16.289062 26.308594 L 15.992188 26.613281 L 16.289062 26.914062 Z M 17.488281 28.4375 L 17.179688 28.125 L 16.875 28.4375 L 17.179688 28.753906 Z M 17.488281 31.179688 L 17.179688 30.863281 L 16.875 31.179688 L 17.179688 31.496094 Z M 17.488281 27.527344 L 17.179688 27.210938 L 16.875 27.527344 L 17.179688 27.839844 Z M 17.488281 29.351562 L 17.179688 29.039062 L 16.875 29.351562 L 17.179688 29.667969 Z M 18.398438 14.734375 L 18.074219 14.40625 L 17.753906 14.734375 L 18.074219 15.0625 Z M 14.765625 19.300781 L 14.5 19.027344 L 14.230469 19.300781 L 14.5 19.574219 Z M 14.765625 21.128906 L 14.5 20.855469 L 14.230469 21.128906 L 14.5 21.402344 Z M 19.246094 27.585938 C 19.136719 27.46875 19.023438 27.355469 18.914062 27.242188 L 18.632812 27.527344 L 18.96875 27.867188 Z M 14.765625 18.386719 L 14.5 18.113281 L 14.230469 18.386719 L 14.5 18.664062 Z M 14.742188 22.984375 C 14.652344 22.890625 14.5625 22.800781 14.472656 22.707031 L 14.230469 22.957031 L 14.5 23.230469 Z M 14.765625 22.042969 L 14.5 21.769531 L 14.230469 22.042969 L 14.5 22.316406 Z M 14.765625 24.785156 L 14.5 24.511719 L 14.230469 24.785156 L 14.5 25.058594 Z M 14.765625 23.871094 L 14.5 23.597656 L 14.230469 23.871094 L 14.5 24.144531 Z M 14.765625 16.5625 L 14.5 16.285156 L 14.230469 16.5625 L 14.5 16.835938 Z M 14.765625 20.214844 L 14.5 19.941406 L 14.230469 20.214844 L 14.5 20.488281 Z M 14.765625 17.472656 L 14.5 17.199219 L 14.230469 17.472656 L 14.5 17.75 Z M 18.398438 15.648438 L 18.074219 15.316406 L 17.753906 15.648438 L 18.074219 15.976562 Z M 19.304688 16.5625 L 18.96875 16.21875 L 18.632812 16.5625 L 18.96875 16.902344 Z M 20.148438 28.503906 C 20.03125 28.386719 19.917969 28.265625 19.800781 28.148438 L 19.515625 28.4375 L 19.863281 28.796875 Z M 19.304688 15.648438 L 18.96875 15.304688 L 18.632812 15.648438 L 18.96875 15.988281 Z M 18.398438 17.472656 L 18.074219 17.144531 L 17.753906 17.472656 L 18.074219 17.804688 Z M 18.398438 16.5625 L 18.074219 16.230469 L 17.753906 16.5625 L 18.074219 16.890625 Z M 16.582031 27.527344 L 16.289062 27.222656 L 15.992188 27.527344 L 16.289062 27.828125 Z M 18.394531 18.382812 L 18.074219 18.058594 L 17.753906 18.386719 L 18.074219 18.714844 C 18.179688 18.605469 18.285156 18.496094 18.394531 18.382812 Z M 16.582031 16.5625 L 16.289062 16.257812 L 15.992188 16.5625 L 16.289062 16.863281 Z M 16.582031 28.4375 L 16.289062 28.136719 L 15.992188 28.4375 L 16.289062 28.742188 Z M 16.582031 14.734375 L 16.289062 14.433594 L 15.992188 14.734375 L 16.289062 15.035156 Z M 16.582031 18.386719 L 16.289062 18.085938 L 15.992188 18.386719 L 16.289062 18.691406 Z M 16.582031 15.648438 L 16.289062 15.34375 L 15.992188 15.648438 L 16.289062 15.949219 Z M 17.488281 14.734375 L 17.179688 14.417969 L 16.875 14.734375 L 17.179688 15.046875 Z M 16.582031 20.214844 L 16.289062 19.914062 L 15.992188 20.214844 L 16.289062 20.515625 Z M 16.582031 19.300781 L 16.289062 19 L 15.992188 19.300781 L 16.289062 19.601562 Z M 15.675781 16.5625 L 15.394531 16.273438 L 15.113281 16.5625 L 15.394531 16.847656 Z M 15.675781 21.128906 L 15.394531 20.839844 L 15.113281 21.128906 L 15.394531 21.417969 Z M 17.488281 13.820312 L 17.179688 13.503906 L 16.875 13.820312 L 17.179688 14.136719 Z M 15.675781 17.472656 L 15.394531 17.1875 L 15.113281 17.472656 L 15.394531 17.761719 Z M 15.675781 15.648438 L 15.394531 15.359375 L 15.113281 15.648438 L 15.394531 15.933594 Z M 15.675781 18.386719 L 15.394531 18.101562 L 15.113281 18.386719 L 15.394531 18.675781 Z M 15.675781 20.214844 L 15.394531 19.929688 L 15.113281 20.214844 L 15.394531 20.503906 Z M 15.675781 19.300781 L 15.394531 19.015625 L 15.113281 19.300781 L 15.394531 19.589844 Z M 16.582031 17.472656 L 16.289062 17.171875 L 15.992188 17.472656 L 16.289062 17.777344 Z M 15.675781 24.785156 L 15.394531 24.496094 L 15.113281 24.785156 L 15.394531 25.070312 Z M 15.675781 25.699219 L 15.394531 25.410156 L 15.113281 25.699219 L 15.394531 25.984375 Z M 15.675781 26.613281 L 15.394531 26.324219 L 15.113281 26.613281 L 15.394531 26.898438 Z M 17.488281 15.648438 L 17.179688 15.332031 L 16.875 15.648438 L 17.179688 15.960938 Z M 15.644531 23.902344 C 15.550781 23.808594 15.457031 23.710938 15.363281 23.613281 L 15.113281 23.871094 L 15.394531 24.160156 Z M 16.582031 30.265625 L 16.289062 29.964844 L 15.992188 30.265625 L 16.289062 30.566406 Z M 15.675781 29.351562 L 15.394531 29.066406 L 15.113281 29.351562 L 15.394531 29.640625 Z M 16.582031 29.351562 L 16.289062 29.050781 L 15.992188 29.351562 L 16.289062 29.65625 Z M 15.675781 27.527344 L 15.394531 27.238281 L 15.113281 27.527344 L 15.394531 27.8125 Z M 15.675781 28.4375 L 15.394531 28.152344 L 15.113281 28.4375 L 15.394531 28.726562 Z M 17.488281 18.386719 L 17.179688 18.074219 L 16.875 18.386719 L 17.179688 18.703125 Z M 17.488281 19.300781 L 17.179688 18.988281 L 16.875 19.300781 L 17.179688 19.617188 Z M 17.488281 16.5625 L 17.179688 16.246094 L 16.875 16.5625 L 17.179688 16.875 Z M 17.488281 17.472656 L 17.179688 17.160156 L 16.875 17.472656 L 17.179688 17.789062 Z M 20.195312 16.542969 L 19.863281 16.203125 L 19.515625 16.5625 L 19.847656 16.898438 C 19.964844 16.78125 20.078125 16.664062 20.195312 16.542969 Z M 14.765625 25.699219 L 14.5 25.425781 L 14.230469 25.699219 L 14.5 25.972656 Z M 19.296875 17.464844 L 18.96875 17.132812 L 18.632812 17.472656 L 18.960938 17.808594 C 19.070312 17.691406 19.183594 17.578125 19.296875 17.464844 Z M 12.042969 23.871094 L 11.816406 23.636719 L 11.589844 23.871094 L 11.816406 24.105469 Z M 12.953125 24.785156 L 12.710938 24.539062 L 12.46875 24.785156 L 12.710938 25.03125 Z M 12.953125 26.613281 L 12.710938 26.363281 L 12.46875 26.613281 L 12.710938 26.859375 Z M 12.953125 22.957031 L 12.710938 22.710938 L 12.46875 22.957031 L 12.710938 23.203125 Z M 12.953125 23.871094 L 12.710938 23.625 L 12.46875 23.871094 L 12.710938 24.117188 Z M 13.859375 19.300781 L 13.605469 19.042969 L 13.351562 19.300781 L 13.605469 19.5625 Z M 13.859375 17.472656 L 13.605469 17.214844 L 13.351562 17.472656 L 13.605469 17.734375 Z M 13.859375 18.386719 L 13.605469 18.128906 L 13.351562 18.386719 L 13.605469 18.648438 Z M 12.953125 25.699219 L 12.710938 25.453125 L 12.46875 25.699219 L 12.710938 25.945312 Z M 12.953125 22.042969 L 12.710938 21.796875 L 12.46875 22.042969 L 12.710938 22.289062 Z M 12.953125 19.300781 L 12.710938 19.054688 L 12.46875 19.300781 L 12.710938 19.546875 Z M 12.042969 25.699219 L 11.816406 25.464844 L 11.589844 25.699219 L 11.816406 25.929688 Z M 12.042969 24.785156 L 11.816406 24.550781 L 11.589844 24.785156 L 11.816406 25.015625 Z M 12.042969 22.957031 L 11.816406 22.722656 L 11.589844 22.957031 L 11.816406 23.191406 Z M 12.953125 18.386719 L 12.710938 18.140625 L 12.46875 18.386719 L 12.710938 18.636719 Z M 12.953125 21.128906 L 12.710938 20.882812 L 12.46875 21.128906 L 12.710938 21.375 Z M 12.953125 20.214844 L 12.710938 19.96875 L 12.46875 20.214844 L 12.710938 20.460938 Z M 13.859375 20.214844 L 13.605469 19.957031 L 13.351562 20.214844 L 13.605469 20.476562 Z M 13.859375 22.957031 L 13.605469 22.695312 L 13.351562 22.957031 L 13.605469 23.21875 Z M 13.859375 23.871094 L 13.605469 23.609375 L 13.351562 23.871094 L 13.605469 24.132812 Z M 13.859375 22.042969 L 13.605469 21.78125 L 13.351562 22.042969 L 13.605469 22.304688 Z M 14.765625 26.613281 L 14.5 26.335938 L 14.230469 26.613281 L 14.5 26.886719 Z M 13.859375 21.128906 L 13.605469 20.867188 L 13.351562 21.128906 L 13.605469 21.390625 Z M 13.859375 24.785156 L 13.605469 24.523438 L 13.351562 24.785156 L 13.605469 25.042969 Z M 13.859375 26.613281 L 13.605469 26.351562 L 13.351562 26.613281 L 13.605469 26.871094 Z M 13.859375 25.699219 L 13.605469 25.4375 L 13.351562 25.699219 L 13.605469 25.957031 Z M 13.859375 27.527344 L 13.605469 27.265625 L 13.351562 27.527344 L 13.605469 27.785156 Z M 14.765625 28.4375 L 14.5 28.164062 L 14.230469 28.4375 L 14.5 28.714844 Z M 8.945312 22.957031 L 9.132812 23.148438 L 9.320312 22.957031 L 9.132812 22.765625 Z M 14.765625 27.527344 L 14.5 27.25 L 14.230469 27.527344 L 14.5 27.800781 Z M 11.136719 20.214844 L 10.921875 19.996094 L 10.707031 20.214844 L 10.921875 20.433594 Z M 11.136719 23.871094 L 10.921875 23.652344 L 10.707031 23.871094 L 10.921875 24.089844 Z M 9.320312 22.042969 L 9.132812 21.851562 L 8.945312 22.042969 L 9.132812 22.234375 Z M 11.136719 22.957031 L 10.921875 22.738281 L 10.707031 22.957031 L 10.921875 23.175781 Z M 12.042969 20.214844 L 11.816406 19.984375 L 11.589844 20.214844 L 11.816406 20.449219 Z M 12.042969 21.128906 L 11.816406 20.894531 L 11.589844 21.128906 L 11.816406 21.363281 Z M 12.042969 19.300781 L 11.816406 19.070312 L 11.589844 19.300781 L 11.816406 19.535156 Z M 11.136719 22.042969 L 10.921875 21.824219 L 10.707031 22.042969 L 10.921875 22.261719 Z M 11.136719 24.785156 L 10.921875 24.566406 L 10.707031 24.785156 L 10.921875 25.003906 Z M 10.230469 22.042969 L 10.027344 21.835938 L 9.828125 22.042969 L 10.027344 22.25 Z M 10.230469 21.128906 L 10.027344 20.921875 L 9.828125 21.128906 L 10.027344 21.335938 Z M 10.230469 22.957031 L 10.027344 22.75 L 9.828125 22.957031 L 10.027344 23.164062 Z M 12.042969 22.042969 L 11.816406 21.808594 L 11.589844 22.042969 L 11.816406 22.277344 Z M 10.230469 23.871094 L 10.027344 23.664062 L 9.828125 23.871094 L 10.027344 24.078125 Z M 11.136719 21.128906 L 10.921875 20.910156 L 10.707031 21.128906 L 10.921875 21.347656 Z M 11.136719 21.128906 " fill-opacity="1" fill-rule="nonzero"/></g><g clip-path="url(#8326682d74)"><path fill="#7e7e7e" d="M 29.800781 23.769531 L 29.800781 26.785156 L 29.476562 26.785156 L 29.476562 27.121094 L 28.828125 27.121094 L 28.828125 27.457031 L 28.503906 27.457031 L 28.503906 27.789062 L 27.855469 27.789062 L 27.855469 28.125 L 27.53125 28.125 L 27.53125 28.460938 L 26.882812 28.460938 L 26.882812 28.796875 L 26.558594 28.796875 L 26.558594 29.132812 L 25.910156 29.132812 L 25.910156 29.464844 L 25.585938 29.464844 L 25.585938 29.800781 L 24.9375 29.800781 L 24.9375 30.136719 L 24.613281 30.136719 L 24.613281 30.472656 L 23.316406 30.472656 L 23.316406 30.136719 L 22.992188 30.136719 L 22.992188 29.800781 L 22.34375 29.800781 L 22.34375 29.464844 L 22.019531 29.464844 L 22.019531 29.132812 L 21.371094 29.132812 L 21.371094 28.796875 L 21.046875 28.796875 L 21.046875 28.460938 L 20.398438 28.460938 L 20.398438 28.125 L 20.074219 28.125 L 20.074219 27.789062 L 19.425781 27.789062 L 19.425781 27.457031 L 19.101562 27.457031 L 19.101562 27.121094 L 18.453125 27.121094 L 18.453125 26.785156 L 18.128906 26.785156 L 18.128906 26.449219 L 17.804688 26.449219 L 17.804688 24.105469 L 18.128906 24.105469 L 18.128906 23.769531 L 18.453125 23.769531 L 18.453125 23.433594 L 18.777344 23.433594 L 18.777344 23.097656 L 19.101562 23.097656 L 19.101562 22.765625 L 18.777344 22.765625 L 18.777344 22.429688 L 18.453125 22.429688 L 18.453125 16.398438 L 18.777344 16.398438 L 18.777344 16.0625 L 19.101562 16.0625 L 19.101562 15.726562 L 19.75 15.726562 L 19.75 15.390625 L 20.074219 15.390625 L 20.074219 15.058594 L 20.722656 15.058594 L 20.722656 14.722656 L 21.371094 14.722656 L 21.371094 15.058594 L 22.019531 15.058594 L 22.019531 15.390625 L 22.667969 15.390625 L 22.667969 15.726562 L 23.316406 15.726562 L 23.316406 15.390625 L 23.964844 15.390625 L 23.964844 15.058594 L 24.613281 15.058594 L 24.613281 15.390625 L 24.9375 15.390625 L 24.9375 15.726562 L 25.585938 15.726562 L 25.585938 16.0625 L 25.910156 16.0625 L 25.910156 16.398438 L 26.558594 16.398438 L 26.558594 16.730469 L 26.882812 16.730469 L 26.882812 17.066406 L 27.207031 17.066406 L 27.207031 17.402344 L 27.53125 17.402344 L 27.53125 17.738281 L 27.855469 17.738281 L 27.855469 21.421875 L 27.53125 21.421875 L 27.53125 21.757812 L 27.207031 21.757812 L 27.207031 22.09375 L 27.53125 22.09375 L 27.53125 22.429688 L 27.855469 22.429688 L 27.855469 22.765625 L 28.503906 22.765625 L 28.503906 23.097656 L 28.828125 23.097656 L 28.828125 23.433594 L 29.476562 23.433594 L 29.476562 23.769531 Z M 29.800781 23.769531 " fill-opacity="1" fill-rule="nonzero"/></g><g clip-path="url(#67ffba19bb)"><path fill="#c0c0c0" d="M 19.101562 22.765625 L 19.75 22.765625 L 19.75 23.097656 L 20.074219 23.097656 L 20.074219 23.433594 L 20.722656 23.433594 L 20.722656 23.769531 L 21.046875 23.769531 L 21.046875 24.105469 L 21.695312 24.105469 L 21.695312 24.441406 L 22.019531 24.441406 L 22.019531 24.773438 L 22.667969 24.773438 L 22.667969 25.109375 L 23.640625 25.109375 L 23.640625 19.078125 L 22.992188 19.078125 L 22.992188 18.742188 L 22.667969 18.742188 L 22.667969 18.40625 L 22.019531 18.40625 L 22.019531 18.074219 L 21.695312 18.074219 L 21.695312 17.738281 L 21.046875 17.738281 L 21.046875 17.402344 L 20.722656 17.402344 L 20.722656 17.066406 L 20.074219 17.066406 L 20.074219 16.730469 L 19.75 16.730469 L 19.75 16.398438 L 19.101562 16.398438 L 19.101562 16.0625 L 18.777344 16.0625 L 18.777344 22.429688 L 19.101562 22.429688 Z M 19.425781 17.738281 L 19.425781 17.402344 L 20.074219 17.402344 L 20.074219 17.738281 L 20.398438 17.738281 L 20.398438 18.074219 L 21.046875 18.074219 L 21.046875 18.40625 L 21.371094 18.40625 L 21.371094 18.742188 L 22.019531 18.742188 L 22.019531 19.078125 L 22.34375 19.078125 L 22.34375 19.414062 L 22.992188 19.414062 L 22.992188 19.75 L 23.316406 19.75 L 23.316406 23.769531 L 22.992188 23.769531 L 22.992188 24.105469 L 22.34375 24.105469 L 22.34375 23.769531 L 22.019531 23.769531 L 22.019531 23.433594 L 21.371094 23.433594 L 21.371094 23.097656 L 21.046875 23.097656 L 21.046875 22.765625 L 20.398438 22.765625 L 20.398438 22.429688 L 20.074219 22.429688 L 20.074219 22.09375 L 19.425781 22.09375 L 19.425781 21.757812 L 19.101562 21.757812 L 19.101562 17.738281 Z M 23.316406 27.457031 L 22.992188 27.457031 L 22.992188 27.121094 L 22.34375 27.121094 L 22.34375 26.785156 L 22.019531 26.785156 L 22.019531 26.449219 L 21.371094 26.449219 L 21.371094 26.113281 L 21.046875 26.113281 L 21.046875 25.78125 L 20.398438 25.78125 L 20.398438 25.445312 L 20.074219 25.445312 L 20.074219 25.109375 L 19.425781 25.109375 L 19.425781 24.773438 L 19.101562 24.773438 L 19.101562 24.441406 L 18.453125 24.441406 L 18.453125 23.769531 L 18.128906 23.769531 L 18.128906 26.449219 L 18.453125 26.449219 L 18.453125 26.785156 L 19.101562 26.785156 L 19.101562 27.121094 L 19.425781 27.121094 L 19.425781 27.457031 L 20.074219 27.457031 L 20.074219 27.789062 L 20.398438 27.789062 L 20.398438 28.125 L 21.046875 28.125 L 21.046875 28.460938 L 21.371094 28.460938 L 21.371094 28.796875 L 22.019531 28.796875 L 22.019531 29.132812 L 22.34375 29.132812 L 22.34375 29.464844 L 22.992188 29.464844 L 22.992188 29.800781 L 23.316406 29.800781 L 23.316406 30.136719 L 23.964844 30.136719 L 23.964844 27.789062 L 23.316406 27.789062 Z M 29.152344 24.441406 L 29.152344 24.773438 L 28.503906 24.773438 L 28.503906 25.109375 L 27.855469 25.109375 L 27.855469 25.445312 L 27.53125 25.445312 L 27.53125 25.78125 L 26.882812 25.78125 L 26.882812 26.113281 L 26.558594 26.113281 L 26.558594 26.449219 L 25.910156 26.449219 L 25.910156 26.785156 L 25.585938 26.785156 L 25.585938 27.121094 L 24.9375 27.121094 L 24.9375 27.457031 L 24.613281 27.457031 L 24.613281 27.789062 L 24.289062 27.789062 L 24.289062 30.136719 L 24.613281 30.136719 L 24.613281 29.800781 L 24.9375 29.800781 L 24.9375 29.464844 L 25.585938 29.464844 L 25.585938 29.132812 L 25.910156 29.132812 L 25.910156 28.796875 L 26.558594 28.796875 L 26.558594 28.460938 L 26.882812 28.460938 L 26.882812 28.125 L 27.53125 28.125 L 27.53125 27.789062 L 27.855469 27.789062 L 27.855469 27.457031 L 28.503906 27.457031 L 28.503906 27.121094 L 28.828125 27.121094 L 28.828125 26.785156 L 29.476562 26.785156 L 29.476562 24.441406 Z M 19.75 15.726562 L 19.101562 15.726562 L 19.101562 16.0625 L 19.75 16.0625 Z M 20.074219 15.390625 L 19.75 15.390625 L 19.75 15.726562 L 20.074219 15.726562 Z M 20.722656 15.058594 L 20.074219 15.058594 L 20.074219 15.390625 L 20.722656 15.390625 Z M 21.371094 14.722656 L 20.722656 14.722656 L 20.722656 15.058594 L 21.371094 15.058594 Z M 18.777344 23.433594 L 18.453125 23.433594 L 18.453125 23.769531 L 18.777344 23.769531 Z M 19.101562 23.097656 L 18.777344 23.097656 L 18.777344 23.433594 L 19.101562 23.433594 Z M 26.882812 18.40625 L 26.234375 18.40625 L 26.234375 18.742188 L 26.882812 18.742188 Z M 27.53125 18.074219 L 26.882812 18.074219 L 26.882812 18.40625 L 27.53125 18.40625 Z M 27.53125 18.074219 " fill-opacity="1" fill-rule="nonzero"/></g><g clip-path="url(#c180b13efc)"><path fill="#7e7e7e" d="M 24.9375 24.441406 L 24.9375 24.105469 L 25.585938 24.105469 L 25.585938 23.769531 L 25.910156 23.769531 L 25.910156 23.097656 L 26.234375 23.097656 L 26.234375 22.429688 L 25.910156 22.429688 L 25.910156 18.074219 L 25.585938 18.074219 L 25.585938 18.40625 L 25.261719 18.40625 L 25.261719 18.074219 L 25.585938 18.074219 L 25.585938 17.738281 L 25.261719 17.738281 L 25.261719 17.402344 L 24.613281 17.402344 L 24.613281 17.066406 L 24.289062 17.066406 L 24.289062 16.730469 L 23.640625 16.730469 L 23.640625 16.398438 L 23.316406 16.398438 L 23.316406 16.0625 L 22.667969 16.0625 L 22.667969 15.726562 L 22.019531 15.726562 L 22.019531 15.390625 L 21.371094 15.390625 L 21.371094 15.058594 L 20.722656 15.058594 L 20.722656 15.390625 L 20.074219 15.390625 L 20.074219 15.726562 L 19.75 15.726562 L 19.75 16.0625 L 19.101562 16.0625 L 19.101562 16.398438 L 19.75 16.398438 L 19.75 16.730469 L 20.074219 16.730469 L 20.074219 17.066406 L 20.722656 17.066406 L 20.722656 17.402344 L 21.046875 17.402344 L 21.046875 17.738281 L 21.695312 17.738281 L 21.695312 18.074219 L 22.019531 18.074219 L 22.019531 18.40625 L 22.667969 18.40625 L 22.667969 18.742188 L 22.992188 18.742188 L 22.992188 19.078125 L 23.640625 19.078125 L 23.640625 24.859375 L 23.964844 24.859375 L 23.964844 24.773438 L 24.289062 24.773438 L 24.289062 24.441406 Z M 24.613281 18.40625 L 24.9375 18.40625 L 24.9375 18.742188 L 24.613281 18.742188 Z M 23.964844 19.078125 L 23.964844 18.742188 L 24.289062 18.742188 L 24.289062 19.078125 Z M 29.152344 24.441406 L 29.152344 24.105469 L 29.476562 24.105469 L 29.476562 23.769531 L 28.828125 23.769531 L 28.828125 23.433594 L 28.503906 23.433594 L 28.503906 23.097656 L 27.855469 23.097656 L 27.855469 22.765625 L 27.53125 22.765625 L 27.53125 22.429688 L 26.558594 22.429688 L 26.558594 23.097656 L 26.234375 23.097656 L 26.234375 23.769531 L 25.910156 23.769531 L 25.910156 24.105469 L 25.585938 24.105469 L 25.585938 24.441406 L 24.9375 24.441406 L 24.9375 24.773438 L 24.289062 24.773438 L 24.289062 25.109375 L 23.640625 25.109375 L 23.640625 25.445312 L 22.667969 25.445312 L 22.667969 25.109375 L 22.019531 25.109375 L 22.019531 24.773438 L 21.695312 24.773438 L 21.695312 24.441406 L 21.046875 24.441406 L 21.046875 24.105469 L 20.722656 24.105469 L 20.722656 23.769531 L 20.074219 23.769531 L 20.074219 23.433594 L 19.75 23.433594 L 19.75 23.097656 L 19.101562 23.097656 L 19.101562 23.433594 L 18.777344 23.433594 L 18.777344 23.769531 L 18.453125 23.769531 L 18.453125 24.441406 L 19.101562 24.441406 L 19.101562 24.773438 L 19.425781 24.773438 L 19.425781 25.109375 L 20.074219 25.109375 L 20.074219 25.445312 L 20.398438 25.445312 L 20.398438 25.78125 L 21.046875 25.78125 L 21.046875 26.113281 L 21.371094 26.113281 L 21.371094 26.449219 L 22.019531 26.449219 L 22.019531 26.785156 L 22.34375 26.785156 L 22.34375 27.121094 L 22.992188 27.121094 L 22.992188 27.457031 L 23.316406 27.457031 L 23.316406 27.789062 L 23.964844 27.789062 L 23.964844 30.136719 L 24.613281 30.136719 L 24.613281 29.800781 L 24.289062 29.800781 L 24.289062 29.464844 L 24.613281 29.464844 L 24.613281 29.132812 L 24.289062 29.132812 L 24.289062 28.796875 L 24.613281 28.796875 L 24.613281 28.460938 L 24.289062 28.460938 L 24.289062 28.125 L 24.613281 28.125 L 24.613281 27.789062 L 24.289062 27.789062 L 24.289062 27.457031 L 24.613281 27.457031 L 24.613281 27.121094 L 24.9375 27.121094 L 24.9375 26.785156 L 25.585938 26.785156 L 25.585938 26.449219 L 25.910156 26.449219 L 25.910156 26.113281 L 26.558594 26.113281 L 26.558594 25.78125 L 26.882812 25.78125 L 26.882812 25.445312 L 27.53125 25.445312 L 27.53125 25.109375 L 27.855469 25.109375 L 27.855469 24.773438 L 28.503906 24.773438 L 28.503906 24.441406 Z M 22.992188 30.136719 L 23.316406 30.136719 L 23.316406 29.800781 L 22.992188 29.800781 Z M 22.34375 29.464844 L 22.34375 29.800781 L 22.992188 29.800781 L 22.992188 29.464844 Z M 22.019531 29.132812 L 22.019531 29.464844 L 22.34375 29.464844 L 22.34375 29.132812 Z M 21.371094 28.796875 L 21.371094 29.132812 L 22.019531 29.132812 L 22.019531 28.796875 Z M 21.046875 28.460938 L 21.046875 28.796875 L 21.371094 28.796875 L 21.371094 28.460938 Z M 20.398438 28.125 L 20.398438 28.460938 L 21.046875 28.460938 L 21.046875 28.125 Z M 20.074219 27.789062 L 20.074219 28.125 L 20.398438 28.125 L 20.398438 27.789062 Z M 19.425781 27.457031 L 19.425781 27.789062 L 20.074219 27.789062 L 20.074219 27.457031 Z M 19.101562 27.121094 L 19.101562 27.457031 L 19.425781 27.457031 L 19.425781 27.121094 Z M 18.453125 26.785156 L 18.453125 27.121094 L 19.101562 27.121094 L 19.101562 26.785156 Z M 18.128906 26.449219 L 18.128906 26.785156 L 18.453125 26.785156 L 18.453125 26.449219 Z M 17.804688 24.105469 L 17.804688 26.449219 L 18.128906 26.449219 L 18.128906 24.105469 Z M 23.640625 16.398438 L 24.289062 16.398438 L 24.289062 16.730469 L 24.613281 16.730469 L 24.613281 17.066406 L 25.261719 17.066406 L 25.261719 17.402344 L 25.585938 17.402344 L 25.585938 17.738281 L 25.910156 17.738281 L 25.910156 18.074219 L 26.234375 18.074219 L 26.234375 18.40625 L 26.882812 18.40625 L 26.882812 18.074219 L 27.53125 18.074219 L 27.53125 17.738281 L 27.207031 17.738281 L 27.207031 17.402344 L 26.882812 17.402344 L 26.882812 17.066406 L 26.558594 17.066406 L 26.558594 16.730469 L 25.910156 16.730469 L 25.910156 16.398438 L 25.585938 16.398438 L 25.585938 16.0625 L 24.9375 16.0625 L 24.9375 15.726562 L 24.613281 15.726562 L 24.613281 15.390625 L 23.964844 15.390625 L 23.964844 15.726562 L 23.316406 15.726562 L 23.316406 16.0625 L 23.640625 16.0625 Z M 26.234375 18.742188 L 26.234375 22.429688 L 26.558594 22.429688 L 26.558594 22.09375 L 26.882812 22.09375 L 26.882812 21.757812 L 27.207031 21.757812 L 27.207031 21.421875 L 27.53125 21.421875 L 27.53125 18.40625 L 26.882812 18.40625 L 26.882812 18.742188 Z M 22.992188 19.75 L 22.992188 19.414062 L 22.34375 19.414062 L 22.34375 19.75 Z M 22.34375 19.414062 L 22.34375 19.078125 L 22.019531 19.078125 L 22.019531 19.414062 Z M 22.019531 19.078125 L 22.019531 18.742188 L 21.371094 18.742188 L 21.371094 19.078125 Z M 21.371094 18.742188 L 21.371094 18.40625 L 21.046875 18.40625 L 21.046875 18.742188 Z M 21.046875 18.40625 L 21.046875 18.074219 L 20.398438 18.074219 L 20.398438 18.40625 Z M 20.398438 18.074219 L 20.398438 17.738281 L 20.074219 17.738281 L 20.074219 18.074219 Z M 20.074219 17.402344 L 19.425781 17.402344 L 19.425781 17.738281 L 20.074219 17.738281 Z M 19.425781 17.738281 L 19.101562 17.738281 L 19.101562 21.757812 L 19.425781 21.757812 Z M 18.777344 16.398438 L 18.453125 16.398438 L 18.453125 22.429688 L 18.777344 22.429688 Z M 29.476562 24.773438 L 29.152344 24.773438 L 29.152344 25.109375 L 29.476562 25.109375 Z M 29.476562 25.78125 L 29.476562 25.445312 L 29.152344 25.445312 L 29.152344 25.78125 Z M 29.476562 26.449219 L 29.476562 26.113281 L 29.152344 26.113281 L 29.152344 26.449219 Z M 29.152344 25.445312 L 29.152344 25.109375 L 28.828125 25.109375 L 28.828125 25.445312 Z M 28.828125 26.113281 L 29.152344 26.113281 L 29.152344 25.78125 L 28.828125 25.78125 Z M 28.828125 26.785156 L 29.152344 26.785156 L 29.152344 26.449219 L 28.828125 26.449219 Z M 28.828125 25.109375 L 28.828125 24.773438 L 28.503906 24.773438 L 28.503906 25.109375 Z M 28.828125 25.78125 L 28.828125 25.445312 L 28.503906 25.445312 L 28.503906 25.78125 Z M 28.503906 26.449219 L 28.828125 26.449219 L 28.828125 26.113281 L 28.503906 26.113281 Z M 28.503906 25.109375 L 28.179688 25.109375 L 28.179688 25.445312 L 28.503906 25.445312 Z M 28.503906 25.78125 L 28.179688 25.78125 L 28.179688 26.113281 L 28.503906 26.113281 Z M 28.179688 26.785156 L 28.503906 26.785156 L 28.503906 26.449219 L 28.179688 26.449219 Z M 28.179688 25.445312 L 27.855469 25.445312 L 27.855469 25.78125 L 28.179688 25.78125 Z M 28.179688 26.113281 L 27.855469 26.113281 L 27.855469 26.449219 L 28.179688 26.449219 Z M 27.855469 25.78125 L 27.53125 25.78125 L 27.53125 26.113281 L 27.855469 26.113281 Z M 27.53125 26.449219 L 27.53125 26.785156 L 27.855469 26.785156 L 27.855469 26.449219 Z M 27.855469 26.785156 L 27.855469 27.121094 L 28.179688 27.121094 L 28.179688 26.785156 Z M 27.53125 27.457031 L 27.855469 27.457031 L 27.855469 27.121094 L 27.53125 27.121094 Z M 27.53125 26.449219 L 27.53125 26.113281 L 27.207031 26.113281 L 27.207031 26.449219 Z M 27.207031 26.113281 L 27.207031 25.78125 L 26.882812 25.78125 L 26.882812 26.113281 Z M 27.207031 26.785156 L 27.207031 26.449219 L 26.882812 26.449219 L 26.882812 26.785156 Z M 27.207031 27.121094 L 27.53125 27.121094 L 27.53125 26.785156 L 27.207031 26.785156 Z M 26.882812 27.457031 L 27.207031 27.457031 L 27.207031 27.121094 L 26.882812 27.121094 Z M 27.207031 27.789062 L 27.53125 27.789062 L 27.53125 27.457031 L 27.207031 27.457031 Z M 26.882812 28.125 L 27.207031 28.125 L 27.207031 27.789062 L 26.882812 27.789062 Z M 26.558594 26.449219 L 26.234375 26.449219 L 26.234375 26.785156 L 26.558594 26.785156 Z M 26.558594 27.121094 L 26.882812 27.121094 L 26.882812 26.785156 L 26.558594 26.785156 Z M 26.234375 27.457031 L 26.558594 27.457031 L 26.558594 27.121094 L 26.234375 27.121094 Z M 26.558594 27.789062 L 26.882812 27.789062 L 26.882812 27.457031 L 26.558594 27.457031 Z M 26.234375 28.125 L 26.558594 28.125 L 26.558594 27.789062 L 26.234375 27.789062 Z M 26.882812 26.449219 L 26.882812 26.113281 L 26.558594 26.113281 L 26.558594 26.449219 Z M 25.910156 27.121094 L 25.585938 27.121094 L 25.585938 27.457031 L 25.910156 27.457031 Z M 25.910156 27.789062 L 26.234375 27.789062 L 26.234375 27.457031 L 25.910156 27.457031 Z M 25.585938 27.789062 L 25.585938 28.125 L 25.910156 28.125 L 25.910156 27.789062 Z M 25.910156 28.125 L 25.910156 28.460938 L 26.234375 28.460938 L 26.234375 28.125 Z M 25.585938 28.796875 L 25.910156 28.796875 L 25.910156 28.460938 L 25.585938 28.460938 Z M 26.234375 26.785156 L 25.910156 26.785156 L 25.910156 27.121094 L 26.234375 27.121094 Z M 25.261719 27.789062 L 24.9375 27.789062 L 24.9375 28.125 L 25.261719 28.125 Z M 25.261719 28.460938 L 25.585938 28.460938 L 25.585938 28.125 L 25.261719 28.125 Z M 24.9375 28.796875 L 25.261719 28.796875 L 25.261719 28.460938 L 24.9375 28.460938 Z M 25.261719 29.132812 L 25.585938 29.132812 L 25.585938 28.796875 L 25.261719 28.796875 Z M 24.9375 29.464844 L 25.261719 29.464844 L 25.261719 29.132812 L 24.9375 29.132812 Z M 25.585938 27.789062 L 25.585938 27.457031 L 25.261719 27.457031 L 25.261719 27.789062 Z M 25.261719 27.457031 L 25.261719 27.121094 L 24.9375 27.121094 L 24.9375 27.457031 Z M 24.9375 27.457031 L 24.613281 27.457031 L 24.613281 27.789062 L 24.9375 27.789062 Z M 24.9375 28.125 L 24.613281 28.125 L 24.613281 28.460938 L 24.9375 28.460938 Z M 24.9375 28.796875 L 24.613281 28.796875 L 24.613281 29.132812 L 24.9375 29.132812 Z M 28.503906 27.121094 L 28.828125 27.121094 L 28.828125 26.785156 L 28.503906 26.785156 Z M 28.179688 27.457031 L 28.503906 27.457031 L 28.503906 27.121094 L 28.179688 27.121094 Z M 26.558594 28.460938 L 26.882812 28.460938 L 26.882812 28.125 L 26.558594 28.125 Z M 26.234375 28.796875 L 26.558594 28.796875 L 26.558594 28.460938 L 26.234375 28.460938 Z M 24.613281 29.800781 L 24.9375 29.800781 L 24.9375 29.464844 L 24.613281 29.464844 Z M 24.613281 29.800781 " fill-opacity="1" fill-rule="nonzero"/></g><g clip-path="url(#b70ff2a062)"><path fill="#fefefe" d="M 22.34375 19.75 L 22.992188 19.75 L 22.992188 23.769531 L 22.34375 23.769531 L 22.34375 23.433594 L 22.019531 23.433594 L 22.019531 23.097656 L 21.371094 23.097656 L 21.371094 22.765625 L 21.046875 22.765625 L 21.046875 22.429688 L 20.398438 22.429688 L 20.398438 22.09375 L 20.074219 22.09375 L 20.074219 21.757812 L 19.425781 21.757812 L 19.425781 17.738281 L 20.074219 17.738281 L 20.074219 18.074219 L 20.398438 18.074219 L 20.398438 18.40625 L 21.046875 18.40625 L 21.046875 18.742188 L 21.371094 18.742188 L 21.371094 19.078125 L 22.019531 19.078125 L 22.019531 19.414062 L 22.34375 19.414062 Z M 19.75 16.398438 L 18.777344 16.398438 L 18.777344 17.402344 L 19.101562 17.402344 L 19.101562 16.730469 L 19.75 16.730469 Z M 18.128906 24.105469 L 18.128906 26.449219 L 18.453125 26.449219 L 18.453125 24.105469 Z M 18.453125 26.785156 L 18.777344 26.785156 L 18.777344 26.449219 L 18.453125 26.449219 Z M 23.640625 27.789062 L 23.640625 30.136719 L 23.964844 30.136719 L 23.964844 27.789062 Z M 23.640625 27.789062 " fill-opacity="1" fill-rule="nonzero"/></g><path fill="#649fe3" d="M 20.722656 20.082031 L 20.722656 20.417969 L 20.398438 20.417969 L 20.398438 21.421875 L 20.074219 21.421875 L 20.074219 19.078125 L 20.398438 19.078125 L 20.398438 20.082031 Z M 21.046875 20.417969 L 20.722656 20.417969 L 20.722656 20.753906 L 21.046875 20.753906 L 21.046875 22.09375 L 21.371094 22.09375 L 21.371094 19.75 L 21.046875 19.75 Z M 21.695312 22.765625 L 22.019531 22.765625 L 22.019531 21.089844 L 21.695312 21.089844 Z M 21.695312 20.417969 L 21.695312 20.753906 L 22.019531 20.753906 L 22.019531 20.417969 Z M 21.695312 20.417969 " fill-opacity="1" fill-rule="nonzero"/><g clip-path="url(#7a61cae2f4)"><path fill="#000000" d="M 23.316406 23.769531 L 22.992188 23.769531 L 22.992188 19.75 L 23.316406 19.75 Z M 22.992188 24.105469 L 22.992188 23.769531 L 22.34375 23.769531 L 22.34375 24.105469 Z M 22.34375 23.769531 L 22.34375 23.433594 L 22.019531 23.433594 L 22.019531 23.769531 Z M 22.019531 23.433594 L 22.019531 23.097656 L 21.371094 23.097656 L 21.371094 23.433594 Z M 21.371094 23.097656 L 21.371094 22.765625 L 21.046875 22.765625 L 21.046875 23.097656 Z M 21.046875 22.765625 L 21.046875 22.429688 L 20.398438 22.429688 L 20.398438 22.765625 Z M 20.398438 22.429688 L 20.398438 22.09375 L 20.074219 22.09375 L 20.074219 22.429688 Z M 20.074219 21.757812 L 19.425781 21.757812 L 19.425781 22.09375 L 20.074219 22.09375 Z M 23.316406 16.0625 L 23.316406 16.398438 L 23.640625 16.398438 L 23.640625 16.0625 Z M 23.640625 16.398438 L 23.640625 16.730469 L 24.289062 16.730469 L 24.289062 16.398438 Z M 24.289062 16.730469 L 24.289062 17.066406 L 24.613281 17.066406 L 24.613281 16.730469 Z M 24.613281 17.066406 L 24.613281 17.402344 L 25.261719 17.402344 L 25.261719 17.066406 Z M 25.261719 17.402344 L 25.261719 17.738281 L 25.585938 17.738281 L 25.585938 17.402344 Z M 25.585938 17.738281 L 25.585938 18.074219 L 25.910156 18.074219 L 25.910156 17.738281 Z M 25.910156 18.074219 L 25.910156 22.429688 L 26.234375 22.429688 L 26.234375 18.074219 Z M 21.371094 15.058594 L 21.371094 15.390625 L 22.019531 15.390625 L 22.019531 15.058594 Z M 22.019531 15.390625 L 22.019531 15.726562 L 22.667969 15.726562 L 22.667969 15.390625 Z M 22.667969 15.726562 L 22.667969 16.0625 L 23.316406 16.0625 L 23.316406 15.726562 Z M 23.964844 15.390625 L 23.316406 15.390625 L 23.316406 15.726562 L 23.964844 15.726562 Z M 24.613281 15.058594 L 23.964844 15.058594 L 23.964844 15.390625 L 24.613281 15.390625 Z M 24.9375 15.726562 L 24.9375 15.390625 L 24.613281 15.390625 L 24.613281 15.726562 Z M 25.585938 16.0625 L 25.585938 15.726562 L 24.9375 15.726562 L 24.9375 16.0625 Z M 25.910156 16.398438 L 25.910156 16.0625 L 25.585938 16.0625 L 25.585938 16.398438 Z M 26.558594 16.730469 L 26.558594 16.398438 L 25.910156 16.398438 L 25.910156 16.730469 Z M 27.207031 17.402344 L 27.207031 17.066406 L 26.882812 17.066406 L 26.882812 17.402344 Z M 27.53125 17.738281 L 27.53125 17.402344 L 27.207031 17.402344 L 27.207031 17.738281 Z M 26.882812 17.066406 L 26.882812 16.730469 L 26.558594 16.730469 L 26.558594 17.066406 Z M 27.855469 21.421875 L 27.855469 17.738281 L 27.53125 17.738281 L 27.53125 21.421875 Z M 27.207031 21.757812 L 27.53125 21.757812 L 27.53125 21.421875 L 27.207031 21.421875 Z M 29.476562 23.769531 L 29.476562 24.105469 L 29.152344 24.105469 L 29.152344 24.441406 L 29.476562 24.441406 L 29.476562 26.785156 L 29.800781 26.785156 L 29.800781 23.769531 Z M 28.828125 27.121094 L 29.476562 27.121094 L 29.476562 26.785156 L 28.828125 26.785156 Z M 28.503906 27.457031 L 28.828125 27.457031 L 28.828125 27.121094 L 28.503906 27.121094 Z M 27.855469 27.789062 L 28.503906 27.789062 L 28.503906 27.457031 L 27.855469 27.457031 Z M 27.53125 28.125 L 27.855469 28.125 L 27.855469 27.789062 L 27.53125 27.789062 Z M 26.882812 28.460938 L 27.53125 28.460938 L 27.53125 28.125 L 26.882812 28.125 Z M 26.558594 28.796875 L 26.882812 28.796875 L 26.882812 28.460938 L 26.558594 28.460938 Z M 25.910156 29.132812 L 26.558594 29.132812 L 26.558594 28.796875 L 25.910156 28.796875 Z M 25.585938 29.464844 L 25.910156 29.464844 L 25.910156 29.132812 L 25.585938 29.132812 Z M 24.9375 29.800781 L 25.585938 29.800781 L 25.585938 29.464844 L 24.9375 29.464844 Z M 24.613281 30.136719 L 24.9375 30.136719 L 24.9375 29.800781 L 24.613281 29.800781 Z M 23.316406 30.472656 L 24.613281 30.472656 L 24.613281 30.136719 L 23.316406 30.136719 Z M 18.777344 22.429688 L 18.777344 22.765625 L 19.101562 22.765625 L 19.101562 22.429688 Z M 19.101562 22.765625 L 19.101562 23.097656 L 19.75 23.097656 L 19.75 22.765625 Z M 19.75 23.097656 L 19.75 23.433594 L 20.074219 23.433594 L 20.074219 23.097656 Z M 20.074219 23.433594 L 20.074219 23.769531 L 20.722656 23.769531 L 20.722656 23.433594 Z M 20.722656 23.769531 L 20.722656 24.105469 L 21.046875 24.105469 L 21.046875 23.769531 Z M 21.046875 24.105469 L 21.046875 24.441406 L 21.695312 24.441406 L 21.695312 24.105469 Z M 21.695312 24.441406 L 21.695312 24.773438 L 22.019531 24.773438 L 22.019531 24.441406 Z M 22.019531 24.773438 L 22.019531 25.109375 L 22.667969 25.109375 L 22.667969 24.773438 Z M 22.667969 25.445312 L 23.640625 25.445312 L 23.640625 25.109375 L 22.667969 25.109375 Z M 23.640625 25.109375 L 24.289062 25.109375 L 24.289062 24.773438 L 23.640625 24.773438 Z M 24.289062 24.773438 L 24.9375 24.773438 L 24.9375 24.441406 L 24.289062 24.441406 Z M 24.9375 24.441406 L 25.585938 24.441406 L 25.585938 24.105469 L 24.9375 24.105469 Z M 25.585938 24.105469 L 25.910156 24.105469 L 25.910156 23.769531 L 25.585938 23.769531 Z M 25.910156 23.769531 L 26.234375 23.769531 L 26.234375 23.097656 L 25.910156 23.097656 Z M 26.234375 23.097656 L 26.558594 23.097656 L 26.558594 22.429688 L 26.234375 22.429688 Z M 28.828125 23.433594 L 28.828125 23.769531 L 29.476562 23.769531 L 29.476562 23.433594 Z M 28.503906 23.097656 L 28.503906 23.433594 L 28.828125 23.433594 L 28.828125 23.097656 Z M 27.855469 22.765625 L 27.855469 23.097656 L 28.503906 23.097656 L 28.503906 22.765625 Z M 27.53125 22.429688 L 27.53125 22.765625 L 27.855469 22.765625 L 27.855469 22.429688 Z M 27.207031 22.09375 L 27.207031 21.757812 L 26.882812 21.757812 L 26.882812 22.09375 L 26.558594 22.09375 L 26.558594 22.429688 L 27.53125 22.429688 L 27.53125 22.09375 Z M 28.503906 24.773438 L 29.152344 24.773438 L 29.152344 24.441406 L 28.503906 24.441406 Z M 27.855469 25.109375 L 28.503906 25.109375 L 28.503906 24.773438 L 27.855469 24.773438 Z M 27.53125 25.445312 L 27.855469 25.445312 L 27.855469 25.109375 L 27.53125 25.109375 Z M 26.882812 25.78125 L 27.53125 25.78125 L 27.53125 25.445312 L 26.882812 25.445312 Z M 26.558594 26.113281 L 26.882812 26.113281 L 26.882812 25.78125 L 26.558594 25.78125 Z M 25.910156 26.449219 L 26.558594 26.449219 L 26.558594 26.113281 L 25.910156 26.113281 Z M 25.585938 26.785156 L 25.910156 26.785156 L 25.910156 26.449219 L 25.585938 26.449219 Z M 24.9375 27.121094 L 25.585938 27.121094 L 25.585938 26.785156 L 24.9375 26.785156 Z M 24.613281 27.457031 L 24.9375 27.457031 L 24.9375 27.121094 L 24.613281 27.121094 Z M 24.289062 27.789062 L 24.613281 27.789062 L 24.613281 27.457031 L 24.289062 27.457031 Z M 23.316406 28.796875 L 23.316406 28.460938 L 22.667969 28.460938 L 22.667969 28.796875 Z M 22.34375 28.125 L 22.34375 28.460938 L 22.667969 28.460938 L 22.667969 28.125 Z M 21.695312 27.789062 L 21.695312 28.125 L 22.34375 28.125 L 22.34375 27.789062 Z M 21.695312 27.789062 " fill-opacity="1" fill-rule="nonzero"/></g><path fill="#c0c0c0" d="M 25.585938 18.074219 L 25.585938 18.40625 L 24.9375 18.40625 L 24.9375 18.074219 Z M 24.289062 18.40625 L 24.289062 18.742188 L 24.9375 18.742188 L 24.9375 18.40625 Z M 23.640625 18.742188 L 23.640625 19.078125 L 24.289062 19.078125 L 24.289062 18.742188 Z M 23.640625 18.742188 " fill-opacity="1" fill-rule="nonzero"/></svg>